<svg xmlns="http://www.w3.org/2000/svg" viewBox="0 0 132.24 108.72"><defs><style>.cls-1{fill:#fefefe;}.cls-2{fill:#de012a;}.cls-3{fill:#d8082d;}.cls-4{fill:#d90a2c;}.cls-5{fill:#d60a2d;}.cls-6{fill:#d70c2f;}.cls-7{fill:#d7072e;}.cls-8{fill:#d30e33;}.cls-9{fill:#060606;}.cls-10{fill:#d40e31;}.cls-11{fill:#040404;}.cls-12{fill:#d7092c;}.cls-13{fill:#050505;}.cls-14{fill:#d80b2f;}.cls-15{fill:#090909;}.cls-16{fill:#070707;}.cls-17{fill:#d10f32;}.cls-18{fill:#d61538;}.cls-19{fill:#d50f33;}.cls-20{fill:#d60f34;}.cls-21{fill:#d31439;}.cls-22{fill:#d1193c;}.cls-23{fill:#cf2340;}.cls-24{fill:#d51639;}.cls-25{fill:#0b0b0b;}.cls-26{fill:#d8082c;}.cls-27{fill:#d70a2f;}.cls-28{fill:#da0629;}.cls-29{fill:#d60d2f;}.cls-30{fill:#d60b2f;}.cls-31{fill:#e0002b;}.cls-32{fill:#d70e30;}.cls-33{fill:#d60d30;}.cls-34{fill:#d51234;}.cls-35{fill:#e4052a;}.cls-36{fill:#da092b;}.cls-37{fill:#d60f31;}.cls-38{fill:#e30223;}.cls-39{fill:#e9062a;}.cls-40{fill:#d21234;}.cls-41{fill:#d60c30;}.cls-42{fill:#d40d31;}.cls-43{fill:#d80e34;}.cls-44{fill:#d41c3e;}.cls-45{fill:#d0153a;}.cls-46{fill:#bd0a2d;}.cls-47{fill:#e9022c;}</style></defs><g id="Layer_2" data-name="Layer 2"><g id="Layer_1-2" data-name="Layer 1"><path class="cls-1" d="M66.12,108.7q-32.57,0-65.14,0c-.82,0-1-.16-1-1Q0,54.36,0,1C0,.16.16,0,1,0Q66.13,0,131.26,0c.82,0,1,.16,1,1q0,53.39,0,106.76c0,.82-.16,1-1,1Q98.7,108.68,66.12,108.7Z"/><path class="cls-2" d="M56.19,58.9a23.28,23.28,0,0,1-2.12,5.2,10.74,10.74,0,0,0-1.47,2.65h0A2.57,2.57,0,0,0,51.86,68c-.23.89-1,1.36-1.48,2.11-.24.46-.68.76-.94,1.2-.47.42-.5,1.17-1.12,1.47a6.9,6.9,0,0,0-2,2.16h0c-1.29.69-2,2-3.15,2.86C36.39,83.29,28.85,86.4,20,84c-6.3-1.73-10.09-6.23-12.07-12.34a32.44,32.44,0,0,1-1.16-9.5,6.89,6.89,0,0,0,.17-2.52.94.94,0,0,1,0-.55c.64-1.88.63-3.91,1.33-5.78a31.4,31.4,0,0,1,2.42-5.81c.44-.71.47-1.6,1-2.29a10.47,10.47,0,0,1,.85-1.75,15,15,0,0,1,2.32-3.37,9.64,9.64,0,0,0,2.11-2.35,38.13,38.13,0,0,1,6.68-6.08,7.25,7.25,0,0,1,1.14-.86c.26-.13.34-.51.7-.51A60.3,60.3,0,0,1,31,27.71a25.17,25.17,0,0,1,3.29-.94,17.53,17.53,0,0,1,6.81-.39c1.24.22,2.48.33,3.72.62,1.69.41,3,1.5,4.63,2.05h0c.17.2-.13.62.45.68.4.05.77.5,1,.91a.4.4,0,0,1,0,.32c-1.08.09-2.12-.49-3.22-.18-.3.09-.64,0-.94.12a4.66,4.66,0,0,0-1.46.69,2.23,2.23,0,0,1-.57.3c-.38.12-.89.07-.89.68a1.36,1.36,0,0,1-1.11.94c-.11,0-.29-.12-.32-.07A12.47,12.47,0,0,0,40.69,40,2.5,2.5,0,0,0,41,41.06a2.92,2.92,0,0,1,.37,1.83.72.72,0,0,1-.31.4c-.58.13-1-.58-1.57-.37a.84.84,0,0,1-.57-.28,4.26,4.26,0,0,0-2.77-.57c-4.85.12-8.5,2.49-11.49,6.1a5.32,5.32,0,0,1-1,1,5.44,5.44,0,0,0-1.81,2.71c-.2.77-.28,1.68-1.18,2.08,0,0-.14-.06-.12,0,.48,1.57-.17,3.11-.22,4.66a12.14,12.14,0,0,0,1.41,6.16,7.17,7.17,0,0,0,5.48,4.08,14.42,14.42,0,0,0,4.82-.18c1.19-.63,2.6-.82,3.63-1.78l.27-.17a2.26,2.26,0,0,0,.77-.53,1,1,0,0,1,.28-.17,6.75,6.75,0,0,0,2.2-2,.64.64,0,0,1,.24-.22,4.73,4.73,0,0,0,1.83-2.86c.79-1.52,1.29-3.17,2.17-4.64a9.54,9.54,0,0,0,.8-4c.05-1-.22-2-.12-3.06,0-.38-.29-.62-.48-.91a1.61,1.61,0,0,1-.3-.84,4.6,4.6,0,0,0-1.28-2.84c-.2-.29-.55-.52-.32-.93s.58-.31,1-.29c1.16.07,2.32.66,3.48,0,1.14-.34,2.31-.61,3-1.71a1,1,0,0,1,.24-.23A2.9,2.9,0,0,0,50.83,40a10.06,10.06,0,0,1,1.1-2.2c.47-.42,0-1,.3-1.47A2.74,2.74,0,0,0,52.48,35c.06-.74.29-1.38,1.22-1.38.39.08.55.44.82.67v0A9.83,9.83,0,0,0,56,37h0a38.37,38.37,0,0,1,1.79,6.75,7.23,7.23,0,0,1,0,2.82,3.62,3.62,0,0,0,0,2.78.93.93,0,0,1,.13.35,22,22,0,0,1-.55,4.93,12.12,12.12,0,0,0-.36,2.07h0A13.78,13.78,0,0,0,56.19,58.9Z"/><path d="M74.37,45.54a11.15,11.15,0,0,1,3.81-1.16,1,1,0,0,1,1,0c1.2.74,2.16.26,3.1-.46a4.52,4.52,0,0,1,1.68,0,3.12,3.12,0,0,0,2.94.41.72.72,0,0,1,.68,0h0c.23.3.59.16.88.27a3.85,3.85,0,0,0,1.51.5,7.93,7.93,0,0,0,2.39,1.17h0c.15,1,1.06,1,1.67,1.43l1.45,1.75a4.54,4.54,0,0,0,1.21,2.81c.24.39-.23.91.24,1.25.31.92-.07,1.9.22,2.83.1,2.15.1,2.16-2,2.16-2.47,0-4.93,0-7.4,0-.68,0-1-.1-1-.89a11.9,11.9,0,0,0-.25-2.12,3,3,0,0,0-1.43-2.26c-2.3-1.5-4.71-1.12-7.14-.41-.77-.22-.77-.22-.74.38l-.07.06h-.09A2.1,2.1,0,0,0,74.94,55h0a1.2,1.2,0,0,0-1,1.18h0c-.08.3-.84,0-.53.66L73,57.6c-1.4,1.3-1.59,3.09-1.9,4.82s-.7,3.5-.85,5.26c-.2,2.41-.56,4.91,1.32,6.94,0,.33.28.44.58.45a1.21,1.21,0,0,0,.86.54c.68.76,1.64.49,2.47.67h1.3a1.79,1.79,0,0,1,1,0c.83.15,1.35-.38,1.9-.86,0-.07.09-.1.16-.07a1.05,1.05,0,0,0,1.27-.93L83,72.47c1,.21.52-.62.68-1h0c.33-.27.85-.51.84-1,0-1.15.69-1.07,1.48-1.06,2.49,0,5,0,7.49,0,.44,0,1.07-.15.83.69a2.44,2.44,0,0,0-.5,1.11c-.56.23-.3.81-.5,1.19h0c-.12.26-.47.4-.38.76l-.34.44a3.35,3.35,0,0,0-1,1.66,12.58,12.58,0,0,1-2.39,2.9,3.79,3.79,0,0,0-1.68,1.41l-.28.26a.79.79,0,0,1-.82-.13s0-.06,0,0-.06,0,0,.1a1.44,1.44,0,0,1-.56,1l-.29.24c-.54-.35-1-.1-1.62,1a20.61,20.61,0,0,1-12.72,2.12c-.4-.75-1,.13-1.48-.21a3.51,3.51,0,0,1-2.12-.51.39.39,0,0,0-.49-.19c-.25,0-.56.1-.73-.23-.4-.62-1.17-.62-1.72-1-.47,0-.66-.38-.92-.67-.49-.35-.61-1.07-1.27-1.24-2.29-2.5-2.87-5.6-3-8.83a28.24,28.24,0,0,1,1.65-9.92,1.84,1.84,0,0,0,.43-1.22,24,24,0,0,1,4.47-8.41c.67-.13.7-.8,1-1.21l.2-.22c.53,0,.93-.35,1.41-.48.77-.2,0-.85.32-1.18h0c.36-.21,1.13.12,1-.75.15-.26.33-.49.67-.46a11.3,11.3,0,0,0,3-1.66h0C73.9,45.73,74.27,45.93,74.37,45.54Z"/><path class="cls-2" d="M110.84,35c.39-1.9.78-3.81,1.15-5.73.1-.55.41-.67.92-.67,2.79,0,5.58,0,8.37,0,.72,0,.79.25.63.85-.35,1.38-.65,2.78-1,4.17-.41.68-.34,1.52-.69,2.22l0,.9c-.17.48-.46,1,0,1.44,2.68,0,5.35,0,8,0,.83,0,1.14.13.84,1.05-.61,1.89-1.11,3.82-1.65,5.73s-2,2.24-3.76,2-3.41.26-5.13.06c-.79-.1-1,.71-1.09,1.32-.29,2.23-1,4.38-1.24,6.63-.08.93-.64,1.33-1.61,1.34-2.34,0-4.68-.08-7-.06-.9,0-1.14-.44-1-1.21.39-1.7.45-3.49,1.34-5,.46-.81,0-1.71.3-2.53a.79.79,0,0,1,.76-.23c-.32-.13-.57.25-.88.08-1.07-.64-2.25-.3-3.35-.25a32.63,32.63,0,0,1-4.64-.22c-.86-.08-1.18-.63-1-1.55.25-1.25.79-2.42,1.13-3.65a7.79,7.79,0,0,0,.29-1.27c.15-1.53.49-1.87,2-1.89,2.15,0,4.3,0,6.45-.12,1.23-.06,1.52-.29,1.57-1.55A13.35,13.35,0,0,1,110.84,35Z"/><path d="M102.9,71.26c.24-2.18.89-4.26,1.29-6.4.1-.51.37-.7.91-.7,2.8,0,5.59,0,8.38,0,.77,0,.87.3.73.92-.65,2.87-1.3,5.73-1.94,8.6-.06.66-.36,1.35.25,1.92h0c0,.51.47.36.75.45a8.5,8.5,0,0,0,3.58.16c1.24-.14,1.33.28,1,1.24-.1.25-.17.51-.26.77-.32.28,0,.7-.21,1a14.5,14.5,0,0,0-.65,3.45c0,.71-.21,1.11-1.11,1.1-3.46,0-6.93.39-10.35-.51a3,3,0,0,1-1.58-.73c-.38-.85-1.49-1.28-1.39-2.41-.11.17-.24.3-.47.25l-.07-.44a.57.57,0,0,1-.09-.44c.35-.31-.1-.61,0-.92a8.35,8.35,0,0,1,.09-1.87l0-.4a3.49,3.49,0,0,0,.42-1.78c.06-.46-.13-1,.22-1.36C103,72.64,102.79,71.91,102.9,71.26Z"/><path class="cls-2" d="M69.35,27.46a7.2,7.2,0,0,1-5.07,6.68,3.33,3.33,0,0,1-4.34-2.75,7.3,7.3,0,0,1,3.89-7.56C66.83,22.48,69.32,24.12,69.35,27.46Z"/><path class="cls-2" d="M85.2,26.9l-.2.25a15.73,15.73,0,0,1-1.22,1.23v0c-.34.33-1,.12-1.2.72h0a5.12,5.12,0,0,1-2.69,0h0a4.92,4.92,0,0,0-1.36-1.25,4.06,4.06,0,0,1-.1-3.61A1.51,1.51,0,0,0,78.93,23h0a15.76,15.76,0,0,1,2.66-2.63h0c1.14-.23,2.29-.7,3.35.23a4.06,4.06,0,0,1,.94,4.63C85.63,25.8,85.45,26.36,85.2,26.9Z"/><path class="cls-3" d="M108.47,47.28c-.37.73.39,1.46,0,2.2-.1.2,0,.51-.17.68-1.2,1.49-1.07,3.35-1.44,5.08-.12.55.15.86.59.76,1.57-.33,3.08.28,4.64.18A9.83,9.83,0,0,1,114.8,56a1,1,0,0,0,1.27-1.06,7.52,7.52,0,0,0,.18-2.34c-.18-.85.52-1.65.69-2.55s0-2.13.77-3.07c.23-.29.36-.47.65-.4,1.94.48,3.87-.26,5.81,0a6,6,0,0,1,1,0c.9.3,1.41,0,1.55-.91.08-.5.4-.64.78-.78a.48.48,0,0,1,0,.12c-.61,2.65-.19,2.16-2.6,2.19-1.87,0-3.75.08-5.63,0-1-.05-1.28.34-1.45,1.22-.47,2.38-1.06,4.74-1.53,7.12-.14.7-.44.89-1.11.89-2.68,0-5.35,0-8,0-.79,0-1.12-.06-.86-1,.63-2.39,1.07-4.82,1.65-7.22.19-.79-.06-1-.79-1-2.48,0-5,0-7.43,0-1.07,0-1.18-.32-.91-1.25.66-2.3,1.25-4.62,1.82-6.94a1,1,0,0,1,1.23-.93c2.39,0,4.79,0,7.18,0,.79,0,1.16-.2,1.29-1a21.25,21.25,0,0,1,.55-2.19c.12.79,0,1.58.14,2.38a1.19,1.19,0,0,1-1.15,1.13c-2.46.08-4.92.08-7.37.17-1.33.05-1.4.39-1.55,1.82a12.42,12.42,0,0,1-1.06,3.24,7.63,7.63,0,0,0-.35,1.12c-.33,1.28-.11,1.47,1.21,1.69a27.25,27.25,0,0,0,6.57,0c.65,0,.91.3,1.19.73Z"/><path class="cls-4" d="M49.44,29.05c-1.08.39-1.67-.59-2.43-1a12,12,0,0,0-4-1.33c-2-.19-4-.64-6-.29-.91.15-1.83.26-2.74.43-.13-.08-.14-.18,0-.28C39.69,25.36,44.78,25.88,49.44,29.05Z"/><path class="cls-5" d="M11.78,45.13c-.47,1.19-1,2.37-1.52,3.53C9.58,50.15,9,51.72,8.38,53.28c-.69,1.88-.51,3.94-1.35,5.77A.22.22,0,0,1,7,58.7a36.12,36.12,0,0,1,4.54-13.6C11.6,45,11.69,45,11.78,45.13Z"/><path class="cls-6" d="M24.74,30.76a13.84,13.84,0,0,1-2.44,2.09c-1.23,1.06-2.44,2.18-3.61,3.32-.77.75-1.28,1.77-2.23,2.34a1.33,1.33,0,0,0-.7.9c-.09.62-.51.62-.95.64A32.28,32.28,0,0,1,24.74,30.76Z"/><path class="cls-7" d="M57.36,46.56c.58-1.46.15-2.91-.15-4.33s-.74-2.82-1.15-4.22A3,3,0,0,1,55.94,37a22.94,22.94,0,0,1,2.13,12c-.2.12,0,.62-.47.47h0C57.16,48.51,57.77,47.49,57.36,46.56Z"/><path class="cls-8" d="M7,58.7c0,.12,0,.23.08.35s0,.32,0,.47a5.88,5.88,0,0,1,0,2.4,30.78,30.78,0,0,0,.88,8.76,5.86,5.86,0,0,1,0,.94A24.64,24.64,0,0,1,6.63,61.05,7.53,7.53,0,0,1,7,58.7Z"/><path class="cls-9" d="M94.35,70.17c0-.44-.34-.57-.75-.57-2.88,0-5.77,0-8.74,0,.42,1.2.07,1.84-1.15,1.88.19-.47.41-.93.57-1.42s.45-.64,1-.64c2.86,0,5.71,0,8.57,0C94.33,69.43,94.89,69.41,94.35,70.17Z"/><path class="cls-10" d="M85.2,26.9c-.08-1,.69-1.79.74-2.8.15-2.85-.8-3.87-3.64-3.69-.23,0-.47,0-.71,0,2.45-1.28,4.78.1,4.8,2.84A5.31,5.31,0,0,1,85.2,26.9Z"/><path class="cls-6" d="M34.31,26.61l0,.28c-1.42.78-3.06,1-4.55,1.64s-2.7,1.68-4.34,1.72A23.72,23.72,0,0,1,34.31,26.61Z"/><path class="cls-11" d="M87.61,44.39a.83.83,0,0,0-.81.37A.56.56,0,0,1,86,45c-.51-.33-1-.87-1.54-.05,0,0-.28-.07-.39-.16-.29-.26,0-.3.15-.46s-.21-.24-.22-.42A9.06,9.06,0,0,1,87.61,44.39Z"/><path class="cls-11" d="M82.31,43.92c-1.06,1.39-1.12,1.39-3,.63a4.26,4.26,0,0,0-1.15-.17,3.29,3.29,0,0,1,1.7-.25s.06,0,.07.08c-.1-.12,0,0-.09-.08A5.82,5.82,0,0,1,82.31,43.92Z"/><path class="cls-9" d="M71.05,62.42A15.85,15.85,0,0,1,71.37,59c.18-.58,1-1,1.58-1.43C72.32,59.21,71.68,60.81,71.05,62.42Z"/><path class="cls-12" d="M57.6,49.44l.47-.47a20.34,20.34,0,0,1-.72,5.75c-.07.11-.15.11-.23,0A33.44,33.44,0,0,0,57.6,49.44Z"/><path class="cls-13" d="M96.71,52.32a2.37,2.37,0,0,1-1.21-2.81A5.24,5.24,0,0,1,96.71,52.32Z"/><path class="cls-13" d="M69.11,48.71c-.21.5,1,.57.39,1.09a1.91,1.91,0,0,1-2.12.57A6.21,6.21,0,0,1,69.11,48.71Z"/><path class="cls-14" d="M43.21,77.76c0-.2-.78-.51,0-.57s1.1-.6,1.41-1.09a2.43,2.43,0,0,1,1.76-1.2A15.3,15.3,0,0,1,43.21,77.76Z"/><path class="cls-15" d="M101.81,80.38c.2-.08.55-.4.57-.26.1,1,1.37,1.35,1.29,2.42A3.24,3.24,0,0,1,101.81,80.38Z"/><path class="cls-9" d="M74.94,55c0-1.42.25-1.65,2.18-1.71Z"/><path class="cls-13" d="M84,82.09c-.08-.24-.31-.48,0-.74.46-.39,1.12-.6,1.22-1.38.14.45.06.86.41,1.13A3.45,3.45,0,0,1,84,82.09Z"/><path class="cls-9" d="M79.68,75.39c.2.75.13.88-.37.63-.73-.37-.06.64-.69.55a6.76,6.76,0,0,0-1.89-.28Z"/><path class="cls-10" d="M81.59,20.41A11.07,11.07,0,0,1,78.93,23,4.77,4.77,0,0,1,81.59,20.41Z"/><path class="cls-13" d="M73.68,45.84c-.47.7-.89,1.44-1.92,1.39a3.28,3.28,0,0,0-1,.27A8.88,8.88,0,0,1,73.68,45.84Z"/><path class="cls-16" d="M94.05,47.76c-.8-.2-2.07.17-1.67-1.43A3.44,3.44,0,0,1,94.05,47.76Z"/><path class="cls-14" d="M46.35,74.9a3.06,3.06,0,0,1,2-2.16A9,9,0,0,1,46.35,74.9Z"/><path class="cls-17" d="M56,37a3.19,3.19,0,0,1-1.44-2.67A6.11,6.11,0,0,1,56,37Z"/><path class="cls-13" d="M87.59,79.64c-.06-.65.94-1.49,1.68-1.41A4,4,0,0,1,87.59,79.64Z"/><path class="cls-9" d="M83.71,71.47a5.36,5.36,0,0,1,.34.49c.28.52-.24.89-.46,1.05s-.24-.47-.56-.54Z"/><path class="cls-18" d="M52.6,66.75a3.6,3.6,0,0,1,1.47-2.65A9.7,9.7,0,0,1,52.6,66.75Z"/><path class="cls-4" d="M50.89,30.73c-.57-.24-.89-.8-1.52-1s.25-.42.08-.69a3.45,3.45,0,0,1,1.22.85C50.77,30.17,51.19,30.36,50.89,30.73Z"/><path class="cls-16" d="M92.38,46.33c-1.15.33-1.67-.63-2.39-1.17A5,5,0,0,1,92.38,46.33Z"/><path class="cls-9" d="M81.11,74.39c0,1.36-.22,1.51-1.27.93Z"/><path class="cls-13" d="M70.06,48c.13.29.7.45.4.86-.46.65-.88-.23-1.36-.11A2.09,2.09,0,0,1,70.06,48Z"/><path class="cls-13" d="M85.91,80.86l.48-1.19a1.41,1.41,0,0,1,.92.23A2,2,0,0,1,85.91,80.86Z"/><path class="cls-19" d="M120.24,35.82c.06-.79-.07-1.64.69-2.22A3.17,3.17,0,0,1,120.24,35.82Z"/><path class="cls-13" d="M102.9,71.26c.06.69.7,1.53-.49,1.91A6,6,0,0,1,102.9,71.26Z"/><path class="cls-9" d="M74,56.19c-.29-1.08-.13-1.27,1-1.18A3.68,3.68,0,0,1,74,56.19Z"/><path class="cls-20" d="M79.89,29.09h2.69A2.44,2.44,0,0,1,79.89,29.09Z"/><path class="cls-16" d="M85.16,53.29a2,2,0,0,1,1.43,2.26A10.65,10.65,0,0,0,85.16,53.29Z"/><path class="cls-20" d="M78.51,27.84c.95-.13,1.14.59,1.36,1.25A1.83,1.83,0,0,1,78.51,27.84Z"/><path class="cls-15" d="M75.43,76.28c-.85-.13-1.92.56-2.47-.67Z"/><path class="cls-17" d="M50.89,30.73c-.08-.28-.15-.55-.22-.83a5.71,5.71,0,0,1,1.66,1.55l-.13.11c-.74.2-1-.43-1.31-.83Z"/><path class="cls-13" d="M62.55,80.18c1.27-.45.82.85,1.27,1.24A3.29,3.29,0,0,1,62.55,80.18Z"/><path class="cls-16" d="M77.28,53.26c0-.61-.8,0-.76-.67.49.19,1.1-.55,1.5.29Z"/><path class="cls-15" d="M101.72,76.71l0,2.23a.38.38,0,0,1,0,.51l0,.49A5.17,5.17,0,0,1,101.72,76.71Z"/><path class="cls-13" d="M64.74,82.09c.62.25,1.61-.15,1.72,1A4.41,4.41,0,0,1,64.74,82.09Z"/><path class="cls-13" d="M69.8,84c.67.14.57-.37.59-1.11.23.76.85.78.89,1.32A2.29,2.29,0,0,1,69.8,84Z"/><path class="cls-9" d="M91.66,75.33c0-.72,0-1.46,1-1.66A3.5,3.5,0,0,1,91.66,75.33Z"/><path class="cls-13" d="M97.17,56.4c-.45-.92-.12-1.89-.22-2.83A6,6,0,0,1,97.17,56.4Z"/><path class="cls-9" d="M93.35,72.47a1.75,1.75,0,0,1,0-1.25c.18-.62.35.1.55.06A1.63,1.63,0,0,1,93.35,72.47Z"/><path class="cls-13" d="M67.18,50.59c-.21.52,0,1.43-1,1.21A3.38,3.38,0,0,1,67.18,50.59Z"/><path class="cls-21" d="M57.12,54.72h.23a4.63,4.63,0,0,1-.45,1.93A2.74,2.74,0,0,1,57.12,54.72Z"/><path class="cls-21" d="M56.19,58.9a3.34,3.34,0,0,1,.71-2.26A6.22,6.22,0,0,1,56.19,58.9Z"/><path class="cls-13" d="M102.19,74.53c.44.73,0,1.24-.42,1.78A3.92,3.92,0,0,1,102.19,74.53Z"/><path class="cls-22" d="M11.78,45.13l-.29,0a5.13,5.13,0,0,1,1-1.68A6,6,0,0,1,11.78,45.13Z"/><path class="cls-19" d="M120.24,38.16c-1-.47-.33-.95,0-1.44Z"/><path class="cls-9" d="M73.43,56.84c-.25-.24-.6-.43-.4-1,.28.2.53.6.93.32C73.86,56.46,73.79,56.77,73.43,56.84Z"/><path class="cls-18" d="M51.86,68c-.11-.62.07-1.08.74-1.22A2.5,2.5,0,0,1,51.86,68Z"/><path class="cls-20" d="M82.58,29.08c-.08-1,.81-.46,1.2-.72A1.74,1.74,0,0,1,82.58,29.08Z"/><path class="cls-15" d="M112.52,75.6c-.85-.54-.49-1.24-.25-1.92A3.1,3.1,0,0,0,112.52,75.6Z"/><path class="cls-15" d="M113.28,76.06c-.31.14-.64.41-1,.09s.16-.34.21-.54Z"/><path class="cls-23" d="M83.78,28.38A2.4,2.4,0,0,1,85,27.15,2.3,2.3,0,0,1,83.78,28.38Z"/><path class="cls-10" d="M78.93,23c.43.65,0,1-.52,1.19A1.55,1.55,0,0,1,78.93,23Z"/><path class="cls-24" d="M49.44,71.27c.06-.6.51-.89.94-1.2A1.63,1.63,0,0,1,49.44,71.27Z"/><path class="cls-25" d="M61.67,60.21c.47.63.08.95-.43,1.22A2.1,2.1,0,0,1,61.67,60.21Z"/><path class="cls-17" d="M54.52,34.31l-.75-.46c-.25-.17-.42-.36-.16-.65l.15-.07A2.33,2.33,0,0,1,54.52,34.31Z"/><path class="cls-17" d="M52.33,31.45a2.07,2.07,0,0,1,.79.89l-.09.14a.81.81,0,0,1-.6-.15.68.68,0,0,1-.27-.39.57.57,0,0,1,.12-.45Z"/><path class="cls-13" d="M74.37,45.54c0,.22.12.52-.14.64s-.34-.27-.55-.34C73.84,45.59,74.11,45.58,74.37,45.54Z"/><path class="cls-16" d="M88.48,44.66c-.37.16-.74.33-.88-.27C87.91,44.41,88.27,44.29,88.48,44.66Z"/><path class="cls-9" d="M93,73.23c-.33-.38-.33-.38.38-.76A1,1,0,0,1,93,73.23Z"/><path class="cls-15" d="M72.1,75.07c-.23,0-.3.44-.54.28s-.17-.48,0-.73C71.83,74.62,72,74.87,72.1,75.07Z"/><path class="cls-13" d="M67.19,83.3c.1-.2.19-.49.49-.33s.06.34,0,.52A.42.42,0,0,1,67.19,83.3Z"/><path class="cls-16" d="M117.36,79.23c0-.35-.37-.77.21-1A1.31,1.31,0,0,1,117.36,79.23Z"/><path class="cls-17" d="M53.12,32.34a1.71,1.71,0,0,1,.64.79l-.06,0c-.61.09-.86-.13-.68-.75Z"/><path class="cls-1" d="M23.62,49a20.23,20.23,0,0,1,6-5.51,14.11,14.11,0,0,1,6.51-1.69,5.76,5.76,0,0,1,2.94.79.42.42,0,0,0,.44.17,7.22,7.22,0,0,1,4.13,4.83c0,.24-.07.51.17.69.81,1.14.39,2.46.51,3.69a9.85,9.85,0,0,1-.71,4.66l-2.11,4.57a8.3,8.3,0,0,1-2.18,2.87h0A6.7,6.7,0,0,1,37,66.22h0a4.48,4.48,0,0,1-1,.71h0A13.27,13.27,0,0,1,31.09,69c-3,.48-5.8,0-8-2.3a9.9,9.9,0,0,1-2.62-5.62A16,16,0,0,1,23.62,49Z"/><path class="cls-1" d="M42.77,33.39l.95-.91a1.59,1.59,0,0,1,1-.76l.4-.3a12.46,12.46,0,0,1,1.56-.64,19.41,19.41,0,0,1,2.29,0,4.57,4.57,0,0,1,2.24,1.48,3.72,3.72,0,0,1,.54.87c.2.51.31,1,.46,1.57a1.68,1.68,0,0,1,.09.32,3.24,3.24,0,0,1,0,1.35c-.05.1-.09.21-.14.32a8.18,8.18,0,0,1-2.73,5.09h0c-.83,1.28-2.23,1.56-3.51,2.08-3.07.64-5.39-1.73-5.27-4.72A8,8,0,0,1,42.77,33.39Z"/><path class="cls-26" d="M23.62,49a22.37,22.37,0,0,0-2.7,6.2,13.26,13.26,0,0,0,.49,8.55A8.1,8.1,0,0,0,29,68.94c.72,0,1.43,0,2.15-.08a1.07,1.07,0,0,1,1,0c0,.14.16.39,0,.39-1.86,0-3.76.38-5.58-.13a7.3,7.3,0,0,1-4-2.67,12,12,0,0,1-2.16-4.91,45,45,0,0,1,.1-6.28c0-1.57,1.25-2.59,1.39-4.05C22,50.14,22.86,49.6,23.62,49Z"/><path class="cls-27" d="M42.77,33.39a10.17,10.17,0,0,0-2,5c-.19,3.18,1.54,5.71,5.24,5.25a.21.21,0,0,1,.33.07,2.11,2.11,0,0,1-2.23.34c-.56-.2-1.2.21-1.68-.33-.11-.11-.4,0-.48.22s.18.39.32.57c.73.89,1.53,1.76,1.4,3.06a10.61,10.61,0,0,0-4.13-4.83c.66-.36,1,.26,1.51.45.14,0,.32.1.41-.09,0,0-.1-.1-.17-.15-.06-.92-.83-1.73-.81-2.53a15.74,15.74,0,0,1,.28-4.22,5.17,5.17,0,0,1,1.15-2.12c.31-.34.52-.69-.31-.81A1.19,1.19,0,0,1,42.77,33.39Z"/><path class="cls-28" d="M51.53,33.15l-.45-.73a.8.8,0,0,1,.49-.37c.36-.22.63.3,1,.12l.46.26a.83.83,0,0,0,.68.75.7.7,0,0,0,.07.67c-.86,0-1,.59-1,1.28,0,.51.15,1.06-.46,1.36l-.11-.14c-.09-.51.15-1.05-.16-1.54v0C51.89,34.27,52,33.61,51.53,33.15Z"/><path class="cls-4" d="M51.61,32.17a.56.56,0,0,1-.53.25,8.07,8.07,0,0,0-1.9-1.37c-.78-.44-1.64-.08-2.45-.22l-.17-.11c1.24-.21,2.48-.74,3.71.05.21.14.43.23.62,0,.63-.05.73.86,1.39.76,0,.15,0,.3,0,.44C52.14,32.18,51.78,31.89,51.61,32.17Z"/><path class="cls-29" d="M43.64,56.62a18.54,18.54,0,0,0,.2-8.35c.83.4.53,1.13.61,1.81a16.73,16.73,0,0,1-.27,5.6C44.1,56.08,44.12,56.48,43.64,56.62Z"/><path class="cls-30" d="M49.41,41.74a10.94,10.94,0,0,0,2.64-5.28,1.48,1.48,0,0,1,0,1.47c-.58,1-.82,2.19-1.51,3.16A1.14,1.14,0,0,1,49.41,41.74Z"/><path class="cls-31" d="M57.36,46.56c.83.23.43.91.46,1.38a7.76,7.76,0,0,1-.22,1.5C56.68,48.55,57.1,47.55,57.36,46.56Z"/><path class="cls-32" d="M32.18,68.88l-1,0A25.71,25.71,0,0,0,36,66.93C35.06,68.24,33.52,68.38,32.18,68.88Z"/><path class="cls-30" d="M46.34,43.72,46,43.65a11.27,11.27,0,0,0,3.41-1.92C49,43.33,47.59,43.4,46.34,43.72Z"/><path class="cls-33" d="M39.35,64.06l2.18-2.87c.12,1.17-1.15,1.69-1.3,2.76C40.19,64.17,39.66,64.06,39.35,64.06Z"/><path class="cls-33" d="M37,66.22l2.39-2.16C39.34,64.83,37.92,66.11,37,66.22Z"/><path class="cls-34" d="M39.1,42.58l-2.94-.79a6.15,6.15,0,0,1,2.69.34C39.14,42.2,39.1,42.38,39.1,42.58Z"/><path class="cls-35" d="M41.29,43c.19,0,.39-.37.57,0a.57.57,0,0,1,0,.53c-.33.27-.55,0-.76-.25Z"/><path class="cls-36" d="M7,61.92l0-2.4A2.84,2.84,0,0,1,7,61.92Z"/><path class="cls-28" d="M52.09,37.93c0-.49,0-1,0-1.47h0a.16.16,0,0,1,.27,0h0C52.06,36.94,53.1,37.61,52.09,37.93Z"/><path class="cls-37" d="M44.73,31.72l-1,.76C43.48,31.46,44.27,31.81,44.73,31.72Z"/><path class="cls-37" d="M46.56,30.94a4,4,0,0,1-1.43.48c.32-.55.93-.52,1.43-.7h0c.08.05.1.1.07.14S46.59,30.94,46.56,30.94Z"/><path class="cls-32" d="M36,66.93a1.77,1.77,0,0,1,1-.71C36.8,66.67,36.58,67.06,36,66.93Z"/><path class="cls-13" d="M86.41,79.67c-.39,0-.6-.16-.64-.43s.15-.28.31-.24C86.46,79.08,86.35,79.41,86.41,79.67Z"/><path class="cls-3" d="M108.47,47.28l.6-.56c.13.26.34.57.17.77s-.45-.36-.77-.21Z"/><path class="cls-3" d="M109.81,48.27c-.08,0-.18.14-.24.12a2,2,0,0,1-.4-.23.69.69,0,0,1,.25-.14A.31.31,0,0,1,109.81,48.27Z"/><path class="cls-13" d="M101.77,79.45c0-.17,0-.34,0-.51.23.06.62-.1.61.3S102,79.55,101.77,79.45Z"/><path class="cls-38" d="M67.63,30.07c.27.05.28.29.27.53s-.1.44-.31.44c-.37,0-.38-.33-.37-.61A.34.34,0,0,1,67.63,30.07Z"/><path d="M79.86,44.13a.6.6,0,0,1,.6.59c-.52.13-.48-.3-.58-.59Z"/><path class="cls-39" d="M51.61,32.17c0-.64.48-.15.71-.24l.24.24C52.24,32.6,51.92,32.08,51.61,32.17Z"/><path class="cls-2" d="M34.83,60.52c-1.67,1.71-4.68,2.18-6,1.16a5.54,5.54,0,0,1-2.27-5.32,35,35,0,0,1,1.53-4.07h0a28.69,28.69,0,0,1,3.13-2.91c.1-.19.27-.21.46-.21a5.11,5.11,0,0,1,4.8.27l.51.49c.22.39.57.74.38,1.25-.05.23-.29.12-.4.24a.67.67,0,0,0,.42-.18c.79,0,.55.71.82,1.07a3.81,3.81,0,0,1,0,2.64c-.38.65-.28,1.47-.72,2.1l-.23.53a4.17,4.17,0,0,0-.93,1.48h0A14.37,14.37,0,0,1,34.83,60.52Z"/><path class="cls-40" d="M26.68,56.16a6.29,6.29,0,0,0,2.13,5.52,5,5,0,0,1-2.17-6A.39.39,0,0,1,26.68,56.16Z"/><path class="cls-41" d="M31.19,49.39a.72.72,0,0,1-.4.8c-1.14.42-1.69,1.59-2.73,2.11A6.51,6.51,0,0,1,31.19,49.39Z"/><path class="cls-41" d="M26.68,56.16l0-.51a6,6,0,0,1,1.43-3.36C28,53.73,27.15,54.88,26.68,56.16Z"/><path class="cls-42" d="M36.45,49.45a8,8,0,0,0-4.8-.27A4.07,4.07,0,0,1,36.45,49.45Z"/><path class="cls-42" d="M37.21,51.36c-.08-.47-.16-1-.25-1.42a2.67,2.67,0,0,1,1.22,2.38c-.37-.27-.27-1-1-1Z"/><path class="cls-43" d="M37.44,57.06c.26-.69,0-1.58.72-2.1A3.06,3.06,0,0,1,37.44,57.06Z"/><path class="cls-44" d="M36.28,59.07a1.37,1.37,0,0,1,.93-1.48A2.56,2.56,0,0,1,36.28,59.07Z"/><path class="cls-44" d="M34.83,60.52a3.43,3.43,0,0,1,1.46-1.46A3,3,0,0,1,34.83,60.52Z"/><path class="cls-45" d="M46.56,30.94c0-.07,0-.14,0-.21.87.13,1.81-.34,2.61.32A10.43,10.43,0,0,0,46.56,30.94Z"/><path class="cls-45" d="M51.53,33.15c.68.4.57,1.06.53,1.68C51.89,34.27,51.71,33.71,51.53,33.15Z"/><path class="cls-46" d="M52.32,36.49l-.27,0V34.81C52.57,35.3,52.22,35.93,52.32,36.49Z"/><path class="cls-47" d="M37.21,51.36a.66.66,0,0,1-.81.43c.23-.31.1-1.09.81-.43Z"/></g></g></svg>